HIERARCHY
ROOT hip
{
  OFFSET 56.258 84.2577 237.64
  CHANNELS 6 Xposition Yposition Zposition Zrotation Xrotation Yrotation
  JOINT abdomen
  {
    OFFSET 0 20.6881 -0.73152
    CHANNELS 3 Zrotation Xrotation Yrotation
    JOINT chest
    {
      OFFSET 0 11.7043 -0.48768
      CHANNELS 3 Zrotation Xrotation Yrotation
      JOINT neck
      {
        OFFSET 0 22.1894 -2.19456
        CHANNELS 3 Zrotation Xrotation Yrotation
        JOINT head
        {
          OFFSET -0.24384 7.07133 1.2192
          CHANNELS 3 Zrotation Xrotation Yrotation
          JOINT leftEye
          {
            OFFSET 4.14528 8.04674 8.04672
            CHANNELS 3 Zrotation Xrotation Yrotation
            End Site
            {
              OFFSET 1 0 0
            }
          }
          JOINT rightEye
          {
            OFFSET -3.6576 8.04674 8.04672
            CHANNELS 3 Zrotation Xrotation Yrotation
            End Site
            {
              OFFSET 1 0 0
            }
          }
        }
      }
      JOINT rCollar
      {
        OFFSET -2.68224 19.2634 -4.8768
        CHANNELS 3 Zrotation Xrotation Yrotation
        JOINT rShldr
        {
          OFFSET -8.77824 -1.95073 1.46304
          CHANNELS 3 Zrotation Xrotation Yrotation
          JOINT rForeArm
          {
            OFFSET -28.1742 -1.7115 0.48768
            CHANNELS 3 Zrotation Xrotation Yrotation
            JOINT rHand
            {
              OFFSET -22.5879 0.773209 7.07136
              CHANNELS 3 Zrotation Xrotation Yrotation
              JOINT rThumb1
              {
                OFFSET -1.2192 -0.487915 3.41376
                CHANNELS 3 Zrotation Xrotation Yrotation
                JOINT rThumb2
                {
                  OFFSET -3.37035 -0.52449 3.41376
                  CHANNELS 3 Zrotation Xrotation Yrotation
                  End Site
                  {
                    OFFSET -1.78271 -1.18214 1.43049
                  }
                }
              }
              JOINT rIndex1
              {
                OFFSET -7.75947 0.938293 5.60832
                CHANNELS 3 Zrotation Xrotation Yrotation
                JOINT rIndex2
                {
                  OFFSET -2.54057 -0.884171 1.56538
                  CHANNELS 3 Zrotation Xrotation Yrotation
                  End Site
                  {
                    OFFSET -1.62519 -0.234802 1.16502
                  }
                }
              }
              JOINT rMid1
              {
                OFFSET -8.24714 1.18213 3.41376
                CHANNELS 3 Zrotation Xrotation Yrotation
                JOINT rMid2
                {
                  OFFSET -3.10165 -0.590103 1.0647
                  CHANNELS 3 Zrotation Xrotation Yrotation
                  End Site
                  {
                    OFFSET -2.48547 -0.328903 0.83742
                  }
                }
              }
              JOINT rRing1
              {
                OFFSET -8.82822 0.546677 1.51678
                CHANNELS 3 Zrotation Xrotation Yrotation
                JOINT rRing2
                {
                  OFFSET -2.60934 -0.819778 -0.0198488
                  CHANNELS 3 Zrotation Xrotation Yrotation
                  End Site
                  {
                    OFFSET -2.33842 -0.294052 0.168128
                  }
                }
              }
              JOINT rPinky1
              {
                OFFSET -8.27202 -0.0477905 -0.4584
                CHANNELS 3 Zrotation Xrotation Yrotation
                JOINT rPinky2
                {
                  OFFSET -1.82734 -0.647385 -0.700984
                  CHANNELS 3 Zrotation Xrotation Yrotation
                  End Site
                  {
                    OFFSET -1.69225 -0.51767 -0.607171
                  }
                }
              }
            }
          }
        }
      }
      JOINT lCollar
      {
        OFFSET 2.68224 19.2634 -4.8768
        CHANNELS 3 Zrotation Xrotation Yrotation
        JOINT lShldr
        {
          OFFSET 8.77824 -1.95073 1.46304
          CHANNELS 3 Zrotation Xrotation Yrotation
          JOINT lForeArm
          {
            OFFSET 28.1742 -1.7115 0.48768
            CHANNELS 3 Zrotation Xrotation Yrotation
            JOINT lHand
            {
              OFFSET 22.5879 0.773209 7.07136
              CHANNELS 3 Zrotation Xrotation Yrotation
              JOINT lThumb1
              {
                OFFSET 1.2192 -0.487915 3.41376
                CHANNELS 3 Zrotation Xrotation Yrotation
                JOINT lThumb2
                {
                  OFFSET 3.37035 -0.52449 3.41376
                  CHANNELS 3 Zrotation Xrotation Yrotation
                  End Site
                  {
                    OFFSET 1.78271 -1.18214 1.43049
                  }
                }
              }
              JOINT lIndex1
              {
                OFFSET 7.75947 0.938293 5.60832
                CHANNELS 3 Zrotation Xrotation Yrotation
                JOINT lIndex2
                {
                  OFFSET 2.54057 -0.884171 1.56538
                  CHANNELS 3 Zrotation Xrotation Yrotation
                  End Site
                  {
                    OFFSET 1.62519 -0.234802 1.16502
                  }
                }
              }
              JOINT lMid1
              {
                OFFSET 8.24714 1.18213 3.41376
                CHANNELS 3 Zrotation Xrotation Yrotation
                JOINT lMid2
                {
                  OFFSET 3.10165 -0.590103 1.0647
                  CHANNELS 3 Zrotation Xrotation Yrotation
                  End Site
                  {
                    OFFSET 2.48547 -0.328903 0.83742
                  }
                }
              }
              JOINT lRing1
              {
                OFFSET 8.82822 0.546677 1.51678
                CHANNELS 3 Zrotation Xrotation Yrotation
                JOINT lRing2
                {
                  OFFSET 2.60934 -0.819778 -0.0198488
                  CHANNELS 3 Zrotation Xrotation Yrotation
                  End Site
                  {
                    OFFSET 2.33842 -0.294052 0.168128
                  }
                }
              }
              JOINT lPinky1
              {
                OFFSET 8.27202 -0.0477905 -0.4584
                CHANNELS 3 Zrotation Xrotation Yrotation
                JOINT lPinky2
                {
                  OFFSET 1.82734 -0.647385 -0.700984
                  CHANNELS 3 Zrotation Xrotation Yrotation
                  End Site
                  {
                    OFFSET 1.69225 -0.51767 -0.607171
                  }
                }
              }
            }
          }
        }
      }
    }
  }
  JOINT rButtock
  {
    OFFSET -8.77824 4.35084 1.2192
    CHANNELS 3 Zrotation Xrotation Yrotation
    JOINT rThigh
    {
      OFFSET 0 -1.70687 -2.19456
      CHANNELS 3 Zrotation Xrotation Yrotation
      JOINT rShin
      {
        OFFSET 0 -36.8199 0.73152
        CHANNELS 3 Zrotation Xrotation Yrotation
        JOINT rFoot
        {
          OFFSET 0.73152 -45.1104 -5.12064
          CHANNELS 3 Zrotation Xrotation Yrotation
          End Site
          {
            OFFSET -1.1221 -3.69964 12.103
          }
        }
      }
    }
  }
  JOINT lButtock
  {
    OFFSET 8.77824 4.35084 1.2192
    CHANNELS 3 Zrotation Xrotation Yrotation
    JOINT lThigh
    {
      OFFSET 0 -1.70687 -2.19456
      CHANNELS 3 Zrotation Xrotation Yrotation
      JOINT lShin
      {
        OFFSET 0 -36.8199 0.73152
        CHANNELS 3 Zrotation Xrotation Yrotation
        JOINT lFoot
        {
          OFFSET -0.73152 -45.1104 -5.12064
          CHANNELS 3 Zrotation Xrotation Yrotation
          End Site
          {
            OFFSET 1.1221 -3.69964 12.103
          }
        }
      }
    }
  }
}
MOTION
Frames:	4
Frame Time:	0.00833333
51.7915 85.5269 255.431 -1.7787 0.00595643 0.0336575 2.34101 -0.00222422 0.0637215 0.646597 0.00594977 0.111938 -3.34197e-014 0 1.37873e-022 -9.98272e-014 3.18055e-015 -3.10601e-018 -0 0 0 -0 0 0 -1.66991e-014 1.24435e-016 4.96962e-017 -3.45667e-013 2.75193e-015 -1.98785e-016 -5.98516e-012 1.87911e-012 4.13472e-014 -6.84817e-011 -1.31605e-012 -1.20861e-013 -1.61535e-010 1.21789e-012 -1.49486e-013 -2.78962e-010 2.09917e-012 -2.49674e-013 -1.6153e-010 1.22054e-012 -1.55847e-013 7.73091 5.47488 0.417314 -1.61534e-010 1.21785e-012 -1.43125e-013 2.90554 0.965183 0.102902 -1.61527e-010 1.21855e-012 -1.47101e-013 10.2786 0.731801 0.0259123 -1.61542e-010 1.22014e-012 -1.39944e-013 2.22167 -0.733487 -0.20892 -1.66978e-014 1.24435e-016 -9.93923e-017 -3.49094e-013 2.75193e-015 -1.98785e-015 -5.98451e-012 -1.7012e-012 5.08889e-014 -6.84713e-011 2.26488e-012 -1.24042e-013 -1.61509e-010 1.21871e-012 -1.55847e-013 -2.78909e-010 2.10235e-012 -2.62396e-013 -1.61515e-010 1.22014e-012 -1.39944e-013 -7.73091 5.47488 -0.417314 -1.61508e-010 1.21905e-012 -1.59028e-013 -2.90554 0.965183 -0.102902 -1.61515e-010 1.21905e-012 -1.55847e-013 -10.2786 0.731801 -0.0259123 -1.61501e-010 1.22014e-012 -1.62208e-013 -2.22167 -0.733487 0.20892 -2.03217e-016 0 -3.88251e-019 2.21546 -8.02974 -0.231358 0.0060719 8.97369 0.152074 -0.47766 -0.95146 0.0348608 2.03217e-016 0 3.88251e-019 1.35204 -1.92788 -0.00535753 0.00846674 -2.07867 0.0694615 0.423889 3.99897 -0.127294 
51.2608 84.3273 242.986 -1.88154 -0.332746 45.8392 3.50247 1.13158 1.69346 -0.0144788 -2.24274 0.561089 2.28772 4.22586 5.06846 -4.31799 -7.54057 9.18469 -0 0 0 -0 0 0 -7.53541e-015 1.2352e-014 -2.1619e-014 22.0582 12.1306 -2.69771 -5.45126 -2.78391 8.15494 -0.00476887 0.52971 0.0751209 2.12587e-010 1.84595e-010 -2.81403e-010 3.6783e-010 3.23078e-010 -4.88917e-010 2.12594e-010 1.84597e-010 -2.81413e-010 7.73091 5.47488 0.417314 2.12588e-010 1.84595e-010 -2.81399e-010 2.90554 0.965183 0.102902 2.12595e-010 1.84594e-010 -2.81402e-010 10.2786 0.731801 0.0259123 2.12579e-010 1.84595e-010 -2.81396e-010 2.22167 -0.733487 -0.20892 -7.56768e-015 1.23534e-014 -2.17386e-014 -22.133 9.84739 1.76114 5.39605 -2.74269 -8.08834 -0.062108 5.53363 -0.764667 -2.7718e-010 -1.13421e-010 -8.0788e-011 -4.80867e-010 -1.96264e-010 -1.36119e-010 -2.77187e-010 -1.13412e-010 -8.0773e-011 -7.73091 5.47488 -0.417314 -2.7718e-010 -1.13421e-010 -8.07893e-011 -2.90554 0.965183 -0.102902 -2.77185e-010 -1.13422e-010 -8.07864e-011 -10.2786 0.731801 -0.0259123 -2.77173e-010 -1.13421e-010 -8.07926e-011 -2.22167 -0.733487 0.20892 -2.03217e-016 0 -3.88251e-019 5.48382 -8.87871 4.15485 0.0599729 15.5039 0.356003 -2.86773 -7.87183 -10.6192 2.03217e-016 0 3.88251e-019 0.50654 -4.66371 -6.82458 -0.020149 5.94323 -0.102147 0.816989 -1.83354 3.06572 
49.8745 84.4711 242.8 -1.68639 0.074873 94.2572 4.65978 2.35177 3.41262 -0.678767 -4.62748 1.03673 3.88384 8.57226 10.5183 -6.20204 -14.8398 19.41 -0 0 0 -0 0 0 2.53014e-015 2.59939e-014 -3.97103e-014 46.7219 24.7891 -5.97028 -10.3743 -5.54977 16.8564 -0.0148072 0.902034 0.128616 6.27251e-010 4.02572e-010 -5.89543e-010 1.08475e-009 7.04441e-010 -1.02441e-009 6.2726e-010 4.02572e-010 -5.89557e-010 7.73091 5.47488 0.417314 6.27251e-010 4.0257e-010 -5.89543e-010 2.90554 0.965183 0.102902 6.27257e-010 4.02568e-010 -5.89544e-010 10.2786 0.731801 0.0259123 6.2724e-010 4.02569e-010 -5.89539e-010 2.22167 -0.733487 -0.20892 2.46136e-015 2.59969e-014 -3.97973e-014 -46.2286 20.2141 3.8084 10.2633 -5.45669 -16.6921 0.0358357 11.3909 -1.59862 -4.21627e-010 -2.64184e-010 -1.69311e-010 -7.32745e-010 -4.5697e-010 -2.85004e-010 -4.21634e-010 -2.64168e-010 -1.69297e-010 -7.73091 5.47488 -0.417314 -4.21626e-010 -2.64186e-010 -1.6931e-010 -2.90554 0.965183 -0.102902 -4.21631e-010 -2.64187e-010 -1.69307e-010 -10.2786 0.731801 -0.0259123 -4.21621e-010 -2.64187e-010 -1.69313e-010 -2.22167 -0.733487 0.20892 -2.03217e-016 0 -3.88251e-019 9.0844 -9.70525 8.80828 0.0619517 22.445 0.593438 -8.22001 -14.3728 -22.4102 2.03217e-016 0 3.88251e-019 -1.09857 -7.3558 -14.1135 0.00327965 14.3912 -0.290801 1.94145 -7.94109 6.5006 
49.0312 84.4709 242.512 -2.13798 1.06424 137.438 5.63186 3.38795 4.96063 -1.23022 -6.73824 1.46825 4.6054 12.277 15.5277 -5.62461 -20.2375 29.2784 -0 0 0 -0 0 0 1.07919e-014 3.68073e-014 -6.49564e-014 70.2743 36.0293 -9.8004 -14.0389 -7.67639 24.6714 -0.018475 1.58912 0.22544 9.60832e-010 5.51351e-010 -8.43909e-010 1.66142e-009 9.65037e-010 -1.46625e-009 9.60842e-010 5.51349e-010 -8.43927e-010 7.73091 5.47488 0.417314 9.60832e-010 5.51348e-010 -8.43912e-010 2.90554 0.965183 0.102902 9.60838e-010 5.51345e-010 -8.43912e-010 10.2786 0.731801 0.0259123 9.6082e-010 5.51346e-010 -8.43907e-010 2.22167 -0.733487 -0.20892 1.06927e-014 3.68114e-014 -6.50169e-014 -68.4402 29.422 5.97896 13.9254 -7.57357 -24.4642 0.273027 16.5888 -2.38253 -5.08524e-010 -3.427e-010 -2.42052e-010 -8.84783e-010 -5.92997e-010 -4.07833e-010 -5.08531e-010 -3.42677e-010 -2.42039e-010 -7.73091 5.47488 -0.417314 -5.08522e-010 -3.42703e-010 -2.4205e-010 -2.90554 0.965183 -0.102902 -5.08526e-010 -3.42704e-010 -2.42047e-010 -10.2786 0.731801 -0.0259123 -5.08518e-010 -3.42704e-010 -2.42053e-010 -2.22167 -0.733487 0.20892 -2.03217e-016 0 -3.88251e-019 12.4085 -10.3792 12.9893 0.00909902 28.5627 0.829709 -15.2643 -18.7002 -33.6118 2.03217e-016 0 3.88251e-019 -3.11267 -9.5869 -20.697 0.0750462 21.9864 -0.478421 3.58397 -13.3199 9.71005 
